<svg xmlns="http://www.w3.org/2000/svg" xmlns:xlink="http://www.w3.org/1999/xlink" version="1.1" x="0px" y="0px" viewBox="0 0 126.6 117" enable-background="new 0 0 126.6 93.6" xml:space="preserve"><path fill="#000000" d="M109.5,25.4c-0.6-2.7-2.9-12.1-6.5-15.7l-0.3-0.3c-3.9-3.9-8.3-8.3-19.2-9.3C82.7,0,81.9,0,81.1,0  c-10,0-15.6,5.9-19.7,11.7c-2.1,2.9-3.5,7-5,11.4c-1.5,4.3-3,8.8-5.3,11.8c-4.7,6.4-13.2,7.6-17.9,7.8c-0.3,0-0.6,0-0.9,0  c-5.7,0-12.7-1.9-18.6-5.1c-5-2.7-10.3-9.2-10.4-9.3l-2.3-2.7l-0.4,3.5c0,0.5-1.2,11.1-0.6,18.7c0.9,11.4,6.8,23.5,15.2,31.6  c9.9,9.5,23.8,14.2,42.3,14.2c27.9,0,40.4-20.1,45.1-27.7c5.1-8.2,6.2-18,6.4-20.9l17.5-11.1L109.5,25.4z M106.2,43.4l0,0.8  c0,0.1-0.5,11.3-6,20.2c-4.5,7.2-16.3,26.3-42.5,26.3c-17.7,0-30.8-4.4-40.2-13.4C9.6,69.8,4,58.1,3.2,47.6  c-0.4-4.7,0-10.9,0.3-14.7c2.2,2.3,5.6,5.5,8.9,7.4c6.3,3.4,13.8,5.5,20,5.5c0.3,0,0.6,0,1,0c5.2-0.2,14.8-1.6,20.2-9  c2.5-3.4,4.1-8.1,5.7-12.6c1.4-4.1,2.8-8,4.6-10.6C67.7,8,72.5,3,81.1,3c0.7,0,1.4,0,2.2,0.1C93,4,96.9,7.8,100.6,11.5l0.3,0.3  c2.9,2.9,5.2,11.7,5.8,14.9l0.1,0.7l13.7,6.8L106.2,43.4z"/><path fill="#000000" d="M72.4,42.7l-2.9,0.8l0.2,3.1c0,3.4-0.5,11.1-5.5,17.1c-4.1,5-10.4,7.8-18.7,8.5c-1.1,0.1-2.2,0.1-3.3,0.1h0  c-14.7,0-21.5-8.1-23.8-11.6L17,57.9L14,58.7l0.7,1.6c0.3,0.6,7.1,14.9,27.4,14.9h0c1.1,0,2.3,0,3.5-0.1c9.1-0.7,16.1-3.9,20.8-9.6  c7.4-8.9,6.1-20.6,6.1-21.1L72.4,42.7z"/><path fill="#000000" d="M89.6,14.7c-4.9,0-8.9,4-8.9,8.9s4,8.9,8.9,8.9s8.9-4,8.9-8.9S94.5,14.7,89.6,14.7z M89.6,29.4  c-3.2,0-5.9-2.6-5.9-5.9s2.6-5.9,5.9-5.9s5.9,2.6,5.9,5.9S92.9,29.4,89.6,29.4z"/></svg>
