<svg xmlns="http://www.w3.org/2000/svg" xmlns:xlink="http://www.w3.org/1999/xlink" version="1.1" x="0px" y="0px" viewBox="0 0 100 125" style="enable-background:new 0 0 100 100;" xml:space="preserve"><g><path d="M70.9,16.4H29.1c-7,0-12.7,5.7-12.7,12.7v41.9c0,7,5.7,12.7,12.7,12.7h41.9c7,0,12.7-5.7,12.7-12.7V29.1   C83.6,22.1,77.9,16.4,70.9,16.4z M29.1,19.2h41.9c5.4,0,9.9,4.4,9.9,9.9v12.5h-14v0.4c-3.7-5.3-9.9-8.8-16.8-8.8   c-6.9,0-13,3.4-16.8,8.7v-0.3h-14V29.1C19.2,23.6,23.6,19.2,29.1,19.2z M50,36c9.8,0,17.7,7.9,17.7,17.7S59.8,71.4,50,71.4   s-17.7-7.9-17.7-17.7S40.2,36,50,36z M70.9,80.8H29.1c-5.4,0-9.9-4.4-9.9-9.9V44.3h12.5c-1.4,2.8-2.3,6-2.3,9.3   c0,11.3,9.2,20.5,20.5,20.5S70.5,65,70.5,53.7c0-3.4-0.8-6.5-2.3-9.3h12.5v26.6C80.8,76.4,76.4,80.8,70.9,80.8z"/><path d="M50,67.2c7.1,0,12.8-5.8,12.8-12.8S57.1,41.5,50,41.5s-12.8,5.8-12.8,12.8S42.9,67.2,50,67.2z M50,44.3   c5.5,0,10,4.5,10,10s-4.5,10-10,10s-10-4.5-10-10S44.5,44.3,50,44.3z"/><path d="M66,36.3h6.3c2,0,3.7-1.7,3.7-3.7v-6.3c0-2-1.7-3.7-3.7-3.7H66c-2,0-3.7,1.7-3.7,3.7v6.3   C62.3,34.6,64,36.3,66,36.3z M64.2,26.3c0-1,0.8-1.8,1.8-1.8h6.3c1,0,1.8,0.8,1.8,1.8v6.3c0,1-0.8,1.8-1.8,1.8H66   c-1,0-1.8-0.8-1.8-1.8V26.3z"/></g></svg>
