<svg xmlns="http://www.w3.org/2000/svg" xmlns:xlink="http://www.w3.org/1999/xlink" version="1.1" x="0px" y="0px" viewBox="0 0 96 120" style="enable-background:new 0 0 96 96;" xml:space="preserve"><g><path d="M14.8,74.5c0,6.6,5.4,12,12,12s12-5.4,12-12c0-1.2-0.2-2.3-0.5-3.3V23.9l39-10.2v32.7c-2.2-2.1-5.2-3.3-8.5-3.3   c-6.9,0-12.5,5.6-12.5,12.5S61.8,68,68.8,68s12.5-5.6,12.5-12.5c0-0.3,0-0.6,0-0.9l0,0V13c0-1.9-1.6-3.5-3.5-3.5h-0.2L37.5,19.9   c-1.8,0.1-3.2,1.6-3.2,3.5v41.7c-2-1.6-4.7-2.6-7.5-2.6C20.1,62.5,14.8,67.9,14.8,74.5z M68.8,64c-4.7,0-8.5-3.8-8.5-8.5   s3.8-8.5,8.5-8.5s8.5,3.8,8.5,8.5S73.4,64,68.8,64z M26.8,66.5c4.4,0,8,3.6,8,8s-3.6,8-8,8s-8-3.6-8-8S22.4,66.5,26.8,66.5z"/></g></svg>
